HIERARCHY
ROOT hips_JNT
{
    OFFSET 0 0 0
    CHANNELS 6 Xposition Yposition Zposition Zrotation Xrotation Yrotation
    JOINT spine_JNT
    {
        OFFSET -0.000424254 9.31981 2.54342
        CHANNELS 3 Zrotation Xrotation Yrotation
        JOINT spine1_JNT
        {
            OFFSET 0 10.8731 -4.54485e-05
            CHANNELS 3 Zrotation Xrotation Yrotation
            JOINT spine2_JNT
            {
                OFFSET 0 12.4264 -5.95116
                CHANNELS 3 Zrotation Xrotation Yrotation
                JOINT neck_JNT
                {
                    OFFSET 0 13.9797 -1.46048
                    CHANNELS 3 Zrotation Xrotation Yrotation
                    JOINT head_JNT
                    {
                        OFFSET 0 5.8702 2.0915
                        CHANNELS 3 Zrotation Xrotation Yrotation
                        End Site
                        {
                            OFFSET 0 0 0
                        }
                    }
                }
                JOINT l_shoulder_JNT
                {
                    OFFSET 4.39914 12.861 -1.48501
                    CHANNELS 3 Zrotation Xrotation Yrotation
                    JOINT l_arm_JNT
                    {
                        OFFSET 8.75735 -2.31198 -0.0490516
                        CHANNELS 3 Zrotation Xrotation Yrotation
                        JOINT l_forearm_JNT
                        {
                            OFFSET 26.9001 -4.76837e-05 1.2666e-05
                            CHANNELS 3 Zrotation Xrotation Yrotation
                            JOINT l_hand_JNT
                            {
                                OFFSET 23.0148 -4.76837e-05 -3.72529e-06
                                CHANNELS 3 Zrotation Xrotation Yrotation
                                JOINT l_handThumb1_JNT
                                {
                                    OFFSET 3.63 -0.779998 2.13
                                    CHANNELS 3 Zrotation Xrotation Yrotation
                                    JOINT l_handThumb2_JNT
                                    {
                                        OFFSET 3.55114 -2.11837 2.24006
                                        CHANNELS 3 Zrotation Xrotation Yrotation
                                        JOINT l_handThumb3_JNT
                                        {
                                            OFFSET 2.15911 -1.11631 0.963467
                                            CHANNELS 3 Zrotation Xrotation Yrotation
                                            End Site
                                            {
                                                OFFSET 0 0 0
                                            }
                                        }
                                    }
                                }
                                JOINT l_handIndex1_JNT
                                {
                                    OFFSET 10.5149 -0.0410199 2.19757
                                    CHANNELS 3 Zrotation Xrotation Yrotation
                                    JOINT l_handIndex2_JNT
                                    {
                                        OFFSET 2.75183 -0.102866 -0.139054
                                        CHANNELS 3 Zrotation Xrotation Yrotation
                                        JOINT l_handIndex3_JNT
                                        {
                                            OFFSET 2.35301 -0.0733972 -0.0904871
                                            CHANNELS 3 Zrotation Xrotation Yrotation
                                            End Site
                                            {
                                                OFFSET 0 0 0
                                            }
                                        }
                                    }
                                }
                                JOINT l_handMiddle1_JNT
                                {
                                    OFFSET 10.0671 0.139201 0.0595726
                                    CHANNELS 3 Zrotation Xrotation Yrotation
                                    JOINT l_handMiddle2_JNT
                                    {
                                        OFFSET 3.90903 -0.288403 -0.119066
                                        CHANNELS 3 Zrotation Xrotation Yrotation
                                        JOINT l_handMiddle3_JNT
                                        {
                                            OFFSET 2.3284 -0.0191092 -0.0594396
                                            CHANNELS 3 Zrotation Xrotation Yrotation
                                            End Site
                                            {
                                                OFFSET 0 0 0
                                            }
                                        }
                                    }
                                }
                                JOINT l_handRing1_JNT
                                {
                                    OFFSET 9.46811 0.132239 -1.80983
                                    CHANNELS 3 Zrotation Xrotation Yrotation
                                    JOINT l_handRing2_JNT
                                    {
                                        OFFSET 3.28153 -0.224054 -0.0339366
                                        CHANNELS 3 Zrotation Xrotation Yrotation
                                        JOINT l_handRing3_JNT
                                        {
                                            OFFSET 2.245 -0.0702143 -0.00838935
                                            CHANNELS 3 Zrotation Xrotation Yrotation
                                            End Site
                                            {
                                                OFFSET 0 0 0
                                            }
                                        }
                                    }
                                }
                                JOINT l_handPinky1_JNT
                                {
                                    OFFSET 8.49077 -0.0777721 -3.58415
                                    CHANNELS 3 Zrotation Xrotation Yrotation
                                    JOINT l_handPinky2_JNT
                                    {
                                        OFFSET 2.53217 -0.0730753 -0.0170402
                                        CHANNELS 3 Zrotation Xrotation Yrotation
                                        JOINT l_handPinky3_JNT
                                        {
                                            OFFSET 1.95121 0.0251174 0.0170089
                                            CHANNELS 3 Zrotation Xrotation Yrotation
                                            End Site
                                            {
                                                OFFSET 0 0 0
                                            }
                                        }
                                    }
                                }
                            }
                        }
                    }
                }
                JOINT r_shoulder_JNT
                {
                    OFFSET -4.39782 12.8606 -1.48501
                    CHANNELS 3 Zrotation Xrotation Yrotation
                    JOINT r_arm_JNT
                    {
                        OFFSET -8.75732 -2.312 -0.0490502
                        CHANNELS 3 Zrotation Xrotation Yrotation
                        JOINT r_forearm_JNT
                        {
                            OFFSET -26.9 0 1.00583e-05
                            CHANNELS 3 Zrotation Xrotation Yrotation
                            JOINT r_hand_JNT
                            {
                                OFFSET -23.0149 0 0
                                CHANNELS 3 Zrotation Xrotation Yrotation
                                JOINT r_handThumb1_JNT
                                {
                                    OFFSET -3.63 -0.779998 2.13
                                    CHANNELS 3 Zrotation Xrotation Yrotation
                                    JOINT r_handThumb2_JNT
                                    {
                                        OFFSET -3.5512 -2.118 2.24006
                                        CHANNELS 3 Zrotation Xrotation Yrotation
                                        JOINT r_handThumb3_JNT
                                        {
                                            OFFSET -2.1591 -1.116 0.963467
                                            CHANNELS 3 Zrotation Xrotation Yrotation
                                            End Site
                                            {
                                                OFFSET 0 0 0
                                            }
                                        }
                                    }
                                }
                                JOINT r_handIndex1_JNT
                                {
                                    OFFSET -10.5149 -0.0409961 2.19756
                                    CHANNELS 3 Zrotation Xrotation Yrotation
                                    JOINT r_handIndex2_JNT
                                    {
                                        OFFSET -2.7518 -0.102997 -0.13905
                                        CHANNELS 3 Zrotation Xrotation Yrotation
                                        JOINT r_handIndex3_JNT
                                        {
                                            OFFSET -2.353 -0.0730038 -0.0904899
                                            CHANNELS 3 Zrotation Xrotation Yrotation
                                            End Site
                                            {
                                                OFFSET 0 0 0
                                            }
                                        }
                                    }
                                }
                                JOINT r_handMiddle1_JNT
                                {
                                    OFFSET -10.0671 0.139999 0.05957
                                    CHANNELS 3 Zrotation Xrotation Yrotation
                                    JOINT r_handMiddle2_JNT
                                    {
                                        OFFSET -3.9091 -0.288999 -0.11907
                                        CHANNELS 3 Zrotation Xrotation Yrotation
                                        JOINT r_handMiddle3_JNT
                                        {
                                            OFFSET -2.3284 -0.019002 -0.05944
                                            CHANNELS 3 Zrotation Xrotation Yrotation
                                            End Site
                                            {
                                                OFFSET 0 0 0
                                            }
                                        }
                                    }
                                }
                                JOINT r_handRing1_JNT
                                {
                                    OFFSET -9.4681 0.133002 -1.80983
                                    CHANNELS 3 Zrotation Xrotation Yrotation
                                    JOINT r_handRing2_JNT
                                    {
                                        OFFSET -3.2816 -0.224996 -0.0339396
                                        CHANNELS 3 Zrotation Xrotation Yrotation
                                        JOINT r_handRing3_JNT
                                        {
                                            OFFSET -2.245 -0.0699997 -0.0083901
                                            CHANNELS 3 Zrotation Xrotation Yrotation
                                            End Site
                                            {
                                                OFFSET 0 0 0
                                            }
                                        }
                                    }
                                }
                                JOINT r_handPinky1_JNT
                                {
                                    OFFSET -8.4908 -0.0769973 -3.58415
                                    CHANNELS 3 Zrotation Xrotation Yrotation
                                    JOINT r_handPinky2_JNT
                                    {
                                        OFFSET -2.5322 -0.0740051 -0.0170402
                                        CHANNELS 3 Zrotation Xrotation Yrotation
                                        JOINT r_handPinky3_JNT
                                        {
                                            OFFSET -1.9512 0.0259995 0.0170097
                                            CHANNELS 3 Zrotation Xrotation Yrotation
                                            End Site
                                            {
                                                OFFSET 0 0 0
                                            }
                                        }
                                    }
                                }
                            }
                        }
                    }
                }
            }
        }
    }
    JOINT l_upleg_JNT
    {
        OFFSET 10.0614 -5.18575 -0.706233
        CHANNELS 3 Zrotation Xrotation Yrotation
        JOINT l_leg_JNT
        {
            OFFSET -0.348572 -45.5824 -0.819168
            CHANNELS 3 Zrotation Xrotation Yrotation
            JOINT l_foot_JNT
            {
                OFFSET 0.349145 -42.3325 -1.70849
                CHANNELS 3 Zrotation Xrotation Yrotation
                JOINT l_toebase_JNT
                {
                    OFFSET 0.0702709 -8.12666 12.8887
                    CHANNELS 3 Zrotation Xrotation Yrotation
                    End Site
                    {
                        OFFSET 0 0 0
                    }
                }
            }
        }
    }
    JOINT r_upleg_JNT
    {
        OFFSET -10.061 -5.18577 -0.706233
        CHANNELS 3 Zrotation Xrotation Yrotation
        JOINT r_leg_JNT
        {
            OFFSET 0.34858 -45.5824 -0.819165
            CHANNELS 3 Zrotation Xrotation Yrotation
            JOINT r_foot_JNT
            {
                OFFSET -0.34918 -42.3325 -1.70849
                CHANNELS 3 Zrotation Xrotation Yrotation
                JOINT r_toebase_JNT
                {
                    OFFSET -0.0702001 -8.12666 12.8887
                    CHANNELS 3 Zrotation Xrotation Yrotation
                    End Site
                    {
                        OFFSET 0 0 0
                    }
                }
            }
        }
    }
}
MOTION
Frames: 7
Frame Time: 0.033333
0.0957713 97.9056 0.000397488 -2.89635 4.39128 6.91208 1.41236 -0.00189696 0 2.66804e-08 -9.93923e-17 0 0.818791 0.0341202 2.93854 -5.2801 5.80053 4.07442 12.8544 -1.60883 1.20916 -5.33608e-08 3.33505e-09 0 -74.9657 22.28 -10.1452 -80.984 30.6039 -35.5353 -8.53774e-07 0 0 4.10661 20.7048 -22.2077 -0 0 0 -16.3437 -0.231572 1.612 -25.8498 7.4522 1.7123 -33.3542 9.36627 2.81111 -22.1237 6.44607 1.26112 -30.1738 5.74037 1.5481 -38.8755 7.1547 2.5291 -25.8403 4.98205 1.14328 -34.3645 -3.23066 -0.999354 -44.2114 -3.98882 -1.61927 -29.447 -2.8145 -0.73913 -37.7851 -6.98622 -2.3933 -48.7257 -8.54825 -3.87631 -32.3447 -6.10755 -1.77294 -5.33608e-08 3.33505e-09 0 71.0389 30.2801 28.0245 53.6746 29.7681 55.4265 -5.33609e-08 3.41509e-06 0 -4.10661 20.7048 22.2077 -0 0 0 15.3578 0.204635 1.51901 24.2741 7.03083 -1.51384 31.3093 8.86092 -2.48791 20.7786 6.07497 -1.11556 28.3423 5.42383 -1.37057 36.5081 6.78556 -2.24025 24.2741 4.70032 -1.01258 32.2872 -3.05762 0.88558 41.5362 -3.79369 1.4391 27.6678 -2.65858 0.653717 35.485 -6.62228 2.12071 45.7472 -8.15236 3.44385 30.3799 -5.7756 1.56769 18.5125 -25.9047 8.91941 -0.380498 32.8202 0.104678 -1.70755e-06 1.17394e-06 0 -0.220252 -2.74097 -1.4623 -7.15336 -19.965 20.9737 -2.76662 31.6629 0.786334 -1.70755e-06 -1.06722e-05 0 0.837552 -13.718 3.56536 
0.145432 100.806 -0.0089135 -3.82713 4.00288 6.99889 2.47497 -0.00101229 0 -1.58989e-15 -4.20217e-07 0 0.796679 0.0191939 1.98773 -4.51657 7.19568 3.5058 11.9108 -1.49892 1.11205 -1.2424e-17 -4.28554e-07 0 -72.3254 35.019 -13.4678 -60.6591 34.3689 -55.7218 -1.28066e-06 0 0 4.10661 20.7048 -22.2077 -0 0 0 -16.2563 -0.229119 1.6047 -25.71 7.41509 1.69531 -33.1728 9.32196 2.78144 -22.0044 6.41333 1.24865 -30.0115 5.71256 1.53183 -38.6656 7.12247 2.50171 -25.7015 4.95723 1.13158 -34.1804 -3.2155 -0.986743 -43.9743 -3.97188 -1.60373 -29.2894 -2.8008 -0.73061 -37.5812 -6.95442 -2.3693 -48.4616 -8.51409 -3.83734 -32.1706 -6.07842 -1.75341 -1.2424e-17 -4.28554e-07 0 65.2575 39.0964 32.6674 42.8077 27.7626 64.4605 8.00413e-08 5.59082e-17 0 -4.10661 20.7048 22.2077 -0 0 0 15.3451 0.204298 1.51643 24.2538 7.02535 -1.51178 31.2829 8.85433 -2.48382 20.7612 6.07016 -1.11486 28.3186 5.41971 -1.36828 36.4776 6.78072 -2.23675 24.2539 4.69666 -1.01181 32.2604 -3.05536 0.882924 41.5017 -3.79112 1.43747 27.6448 -2.65656 0.650115 35.4554 -6.61752 2.11776 45.7088 -8.1471 3.43884 30.3545 -5.77128 1.56519 18.5532 -24.7326 7.51457 -0.599437 30.5315 0.176939 -3.52182e-06 -1.38738e-06 0 -8.53774e-07 1.06722e-06 0 -7.8529 -17.8374 13.0652 -4.51803 26.9541 1.08063 1.92099e-06 2.56132e-06 0 1.70755e-06 6.4033e-07 0 
0.113669 105.29 -0.00417084 -4.7869 4.04883 7.08973 3.49552 -0.000398911 0 1.06722e-07 -6.67011e-09 0 0.63977 0.00749058 1.34579 -3.02958 8.86392 2.36897 10.4518 -1.60192 0.982769 2.66804e-08 -1.66753e-09 0 -69.0572 45.1316 -18.2044 -42.9625 30.9876 -70.3226 -1.70755e-06 -3.41509e-06 0 4.10661 20.7048 -22.2077 -0 0 0 -16.1254 -0.225467 1.59246 -25.5007 7.35938 1.66737 -32.901 9.25537 2.73862 -21.8257 6.3642 1.22779 -29.7682 5.67078 1.50815 -38.3511 7.07399 2.46261 -25.4935 4.91999 1.11345 -33.9045 -3.19271 -0.972361 -43.619 -3.94635 -1.57864 -29.0531 -2.78021 -0.718729 -37.2756 -6.90659 -2.33201 -48.0658 -8.46253 -3.77937 -31.9095 -6.03466 -1.72551 2.66804e-08 -1.66753e-09 0 58.4446 46.2202 38.8585 34.5295 24.3995 69.6491 2.54444e-14 -6.83019e-06 0 -4.10661 20.7048 22.2077 -0 0 0 15.3897 0.20548 1.52004 24.325 7.04453 -1.52055 31.3753 8.87743 -2.49733 20.822 6.08701 -1.11836 28.4014 5.43415 -1.37627 36.5845 6.79768 -2.25001 24.3247 4.70948 -1.01567 32.3543 -3.06328 0.889108 41.6227 -3.80013 1.44344 27.7253 -2.66367 0.657299 35.5593 -6.63421 2.12882 45.8434 -8.1655 3.45791 30.4433 -5.78644 1.57616 17.9241 -23.4078 5.74539 -0.624377 27.4275 0.158259 5.22936e-06 -6.51002e-06 0.0559529 -5.96354e-15 8.53774e-07 0 -8.39415 -15.5273 5.68511 -3.97249 21.8171 0.761043 3.52182e-06 1.28066e-06 0 -1.92099e-06 -2.13443e-07 0 
-0.0384524 110.615 0.0488285 -5.12443 4.35535 7.17614 3.7123 0.000111863 0 -5.33608e-08 -8.53774e-07 0 0.430991 0.00177781 1.0828 -1.65182 10.5579 1.30144 9.23015 -1.88163 0.892622 2.40124e-07 -4.26887e-07 0 -64.1095 52.9947 -24.9506 -30.1452 24.6107 -78.0134 -4.26887e-07 -3.18055e-15 0 4.10661 20.7048 -22.2077 -0 0 0 -15.975 -0.221307 1.57665 -25.2602 7.29526 1.63658 -32.5888 9.17863 2.68784 -21.6204 6.30769 1.20721 -29.4887 5.62266 1.47986 -37.9897 7.01804 2.4177 -25.2545 4.87711 1.09431 -33.5876 -3.16644 -0.956126 -43.2108 -3.91684 -1.55163 -28.7816 -2.7565 -0.707756 -36.9246 -6.85139 -2.29035 -47.6112 -8.40282 -3.71208 -31.6097 -5.98423 -1.69484 2.40124e-07 -4.26887e-07 0 50.1372 51.6286 46.6588 28.1507 20.8703 72.5978 4.26887e-07 3.41509e-06 0 -4.10661 20.7048 22.2077 -0 0 0 15.465 0.207485 1.52877 24.4453 7.07692 -1.53388 31.5314 8.91644 -2.52228 20.9248 6.11549 -1.12951 28.5414 5.45853 -1.39041 36.7654 6.82628 -2.2701 24.4444 4.73113 -1.02411 32.5131 -3.07664 0.897868 41.8271 -3.81532 1.45586 27.8613 -2.67567 0.662045 35.735 -6.66239 2.14931 46.0708 -8.1965 3.48946 30.5935 -5.81204 1.59099 16.1879 -21.8811 4.53352 -0.644736 24.2951 0.153233 -9.60495e-07 -8.00413e-07 0 -8.53774e-07 -8.53774e-07 0 -8.01094 -13.1955 1.57317 -2.21819 17.6272 0.340348 -1.70755e-06 -7.47052e-07 0 -1.81427e-06 -1.17283e-14 0 
-0.298403 115.659 0.194611 -4.60087 4.6032 7.23516 2.93351 -4.52105e-05 0.0395647 8.00413e-08 -6.67011e-09 0 0.301688 0.000747431 1.12464 -1.28794 12.0248 1.02105 8.76455 -2.04135 0.856831 -2.66804e-08 -4.26887e-07 0 -56.6824 58.6781 -33.724 -21.5865 18.3585 -80.5721 -2.98821e-06 -1.36604e-05 0 4.10661 20.7048 -22.2077 -0 0 0 -15.8646 -0.218278 1.56569 -25.0837 7.24811 1.61443 -32.3597 9.12212 2.65207 -21.4698 6.26616 1.1876 -29.2835 5.58726 1.46016 -37.7246 6.97679 2.38708 -25.0791 4.84559 1.07773 -33.3549 -3.14709 -0.943768 -42.9112 -3.89505 -1.52979 -28.5823 -2.73906 -0.702205 -36.667 -6.81072 -2.25869 -47.2775 -8.35865 -3.66432 -31.3896 -5.9471 -1.673 -2.66804e-08 -4.26887e-07 0 40.7818 55.2477 55.2889 22.9124 17.6657 74.9614 -4.26887e-07 -3.41509e-06 0 -4.10661 20.7048 22.2077 -0 0 0 15.521 0.20898 1.53388 24.5347 7.10094 -1.54607 31.6473 8.94535 -2.54083 21.0011 6.13662 -1.1371 28.6453 5.47661 -1.39883 36.8997 6.84747 -2.28693 24.5333 4.74719 -1.03248 32.6309 -3.08655 0.903949 41.9789 -3.82657 1.46817 27.9622 -2.68457 0.66793 35.8655 -6.68326 2.16455 46.2398 -8.21941 3.51383 30.7049 -5.83102 1.60226 13.3658 -20.139 4.38267 -1.20777 21.8059 0.2307 2.93485e-06 1.76091e-06 0 -2.7214e-06 1.38738e-06 0 -6.18865 -10.835 0.360452 -1.12784 14.5464 0.148037 -4.21551e-06 2.66804e-06 0 -2.56132e-06 1.06722e-07 0 
-0.606495 119.371 0.471867 -3.63584 4.50527 7.2709 1.79515 -8.31194e-05 0.0791294 1.06722e-07 4.13547e-07 0 0.33037 0.0039104 1.38534 -2.08956 13.1754 1.66408 9.00745 -1.87917 0.867723 6.18986e-06 -4.26887e-07 0 -47.5956 62.346 -43.2872 -16.299 13.8442 -80.5811 -0 0 0 4.10661 20.7048 -22.2077 -0 0 0 -15.8337 -0.217434 1.56369 -25.0344 7.23491 1.60811 -32.2957 9.10629 2.64172 -21.4277 6.25454 1.18431 -29.2262 5.57735 1.45479 -37.6505 6.96523 2.37722 -25.03 4.83677 1.07482 -33.2899 -3.14167 -0.939612 -42.8274 -3.88894 -1.5262 -28.5266 -2.73418 -0.695485 -36.5949 -6.79932 -2.25071 -47.1843 -8.34625 -3.6502 -31.3281 -5.93671 -1.6655 6.18986e-06 -4.26887e-07 0 31.8547 57.3111 62.9975 18.4065 14.8706 77.7004 -0 0 0 -4.10661 20.7048 22.2077 -0 0 0 15.5278 0.209162 1.53439 24.5455 7.10385 -1.54658 31.6614 8.94885 -2.54268 21.0103 6.13918 -1.13917 28.6579 5.4788 -1.40051 36.9159 6.85003 -2.28864 24.544 4.74914 -1.03324 32.6452 -3.08775 0.903949 41.9973 -3.82793 1.46924 27.9745 -2.68565 0.663226 35.8813 -6.68579 2.16672 46.2602 -8.22218 3.51695 30.7184 -5.83332 1.60421 9.92292 -18.2614 5.16677 -2.48611 20.2032 0.442347 -1.28066e-06 5.06928e-07 0 2.66804e-07 1.30734e-06 0 -2.77679 -8.3472 0.684138 -1.28764 12.4999 0.125115 1.81427e-06 2.40124e-06 0 7.47052e-07 -9.60495e-07 0 
-0.894155 121.094 0.892015 -2.88855 3.94872 7.32809 1.1914 -0.000703691 0.0559529 2.66804e-08 4.26887e-07 0 0.461892 0.0110647 1.84137 -3.41233 14.1489 2.72859 9.65489 -1.6055 0.90913 1.06722e-07 -6.67011e-09 0 -38.6118 64.5724 -52.1514 -13.166 11.1304 -80.3504 -4.26887e-07 6.83019e-06 0 4.10661 20.7048 -22.2077 -0 0 0 -15.8484 -0.217836 1.56419 -25.0579 7.24121 1.612 -32.3263 9.11384 2.64676 -21.4478 6.26008 1.18826 -29.2535 5.58207 1.45747 -37.6858 6.97074 2.38149 -25.0534 4.84098 1.07555 -33.3209 -3.14426 -0.940444 -42.8674 -3.89186 -1.52877 -28.5532 -2.73651 -0.697732 -36.6293 -6.80476 -2.25453 -47.2288 -8.35217 -3.65663 -31.3574 -5.94167 -1.66878 1.06722e-07 -6.67011e-09 0 24.6428 58.4258 68.3244 14.6815 12.5067 80.7678 -0 0 0 -4.10661 20.7048 22.2077 -0 0 0 15.5076 0.208621 1.53132 24.5132 7.09518 -1.54303 31.6195 8.93841 -2.53621 20.9828 6.13155 -1.1371 28.6203 5.47228 -1.39659 36.8674 6.84239 -2.28282 24.5119 4.74334 -1.02869 32.6027 -3.08417 0.902216 41.9425 -3.82387 1.46551 27.938 -2.68244 0.665582 35.8342 -6.67826 2.16129 46.1992 -8.21392 3.50848 30.6782 -5.82647 1.59933 6.29643 -16.3748 6.21683 -3.94955 19.2182 0.66793 3.20165e-07 2.16111e-06 0 2.66804e-07 4.13547e-07 0 1.95938 -5.6893 1.4925 -2.20579 11.4771 0.216705 -5.33608e-08 -3.97569e-16 0 2.13443e-07 0 0 
